<?xml version="1.0" encoding="utf-8"?>
<!-- Generator: Adobe Illustrator 15.0.0, SVG Export Plug-In . SVG Version: 6.00 Build 0)  -->
<!DOCTYPE svg PUBLIC "-//W3C//DTD SVG 1.1//EN" "http://www.w3.org/Graphics/SVG/1.1/DTD/svg11.dtd">
<svg version="1.1" id="Calque_1" xmlns="http://www.w3.org/2000/svg" xmlns:xlink="http://www.w3.org/1999/xlink" x="0px" y="0px"
	 width="94.318px" height="97.725px" viewBox="0 0 94.318 97.725" enable-background="new 0 0 94.318 97.725" xml:space="preserve">
<path fill="#1AC145" d="M70.852,14.146c-0.19,1.634-1.577,2.903-3.262,2.903c-1.815,0-3.286-1.472-3.286-3.286
	c0-1.053,0.497-1.987,1.267-2.589c-5.49-2.591-11.624-4.042-18.098-4.042C24.021,7.133,4.56,26.144,4.56,49.595
	C4.56,72.182,22,90.647,44,91.977V63.225h8v28.483c21-2.681,37.467-20.513,37.467-42.113C89.467,34.783,82.348,21.744,70.852,14.146
	z M52.861,16.158c2.197,0,3.979,1.782,3.979,3.979c0,2.198-1.782,3.98-3.979,3.98c-2.198,0-3.979-1.782-3.979-3.98
	C48.882,17.94,50.663,16.158,52.861,16.158z M34.942,15.691c3.125,0,5.659,2.533,5.659,5.658c0,3.127-2.533,5.66-5.659,5.66
	s-5.659-2.533-5.659-5.66C29.283,18.225,31.816,15.691,34.942,15.691z M31.086,41.146c-3.126,0-5.659-2.534-5.659-5.659
	c0-3.126,2.533-5.659,5.659-5.659c3.125,0,5.659,2.533,5.659,5.659C36.746,38.612,34.212,41.146,31.086,41.146z M44.935,56.313
	c-4.208,0-7.619-3.411-7.619-7.619c0-4.209,3.411-7.62,7.619-7.62s7.62,3.411,7.62,7.62C52.555,52.901,49.143,56.313,44.935,56.313z
	 M48.758,38.255c-3.126,0-5.659-2.534-5.659-5.659c0-3.126,2.533-5.659,5.659-5.659c3.125,0,5.658,2.533,5.658,5.659
	C54.416,35.721,51.883,38.255,48.758,38.255z M61.288,49.5c-3.126,0-5.659-2.533-5.659-5.659s2.533-5.659,5.659-5.659
	c3.125,0,5.659,2.533,5.659,5.659S64.413,49.5,61.288,49.5z M67.071,32.472c-3.126,0-5.659-2.534-5.659-5.659
	c0-3.126,2.533-5.659,5.659-5.659c3.125,0,5.659,2.533,5.659,5.659C72.73,29.938,70.196,32.472,67.071,32.472z"/>
</svg>
