<?xml version="1.0" encoding="utf-8"?>
<!-- Generator: Adobe Illustrator 15.0.0, SVG Export Plug-In . SVG Version: 6.00 Build 0)  -->
<!DOCTYPE svg PUBLIC "-//W3C//DTD SVG 1.1//EN" "http://www.w3.org/Graphics/SVG/1.1/DTD/svg11.dtd">
<svg version="1.1" id="Calque_1" xmlns="http://www.w3.org/2000/svg" xmlns:xlink="http://www.w3.org/1999/xlink" x="0px" y="0px"
	 width="30px" height="30px" viewBox="0 0 30 30" enable-background="new 0 0 30 30" xml:space="preserve">
<circle fill="#50C2BA" cx="15" cy="15" r="15"/>
<g>
	<rect x="13.061" y="3.53" fill="#FFFFFF" width="2.978" height="2.074"/>
	<polygon fill="#FFFFFF" points="23.481,6.507 16.039,6.507 16.039,6.486 13.061,6.486 13.061,6.507 7.107,6.507 7.107,12.462 
		13.061,12.462 13.061,13.028 16.039,13.028 16.039,12.462 23.481,12.462 26.459,9.485 	"/>
	<polygon fill="#FFFFFF" points="16.039,13.91 13.061,13.91 13.061,13.95 5.619,13.95 2.642,16.928 5.619,19.905 13.061,19.905 
		13.061,29.06 16.039,29.06 16.039,19.905 21.993,19.905 21.993,13.95 16.039,13.95 	"/>
</g>
</svg>
