<?xml version="1.0" encoding="utf-8"?>
<!-- Generator: Adobe Illustrator 15.0.0, SVG Export Plug-In . SVG Version: 6.00 Build 0)  -->
<!DOCTYPE svg PUBLIC "-//W3C//DTD SVG 1.1//EN" "http://www.w3.org/Graphics/SVG/1.1/DTD/svg11.dtd">
<svg version="1.1" id="Calque_1" xmlns="http://www.w3.org/2000/svg" xmlns:xlink="http://www.w3.org/1999/xlink" x="0px" y="0px"
	 width="30px" height="33.235px" viewBox="0 0 30 33.235" enable-background="new 0 0 30 33.235" xml:space="preserve">
<circle fill="#286279" cx="15" cy="16.618" r="15"/>
<g>
	<path fill="#FFFFFF" d="M13.758,13.694H8.742c0.096-1.712,0.64-3.104,1.632-4.176c1.184-1.296,2.864-1.944,5.04-1.944
		c2.127,0,3.768,0.56,4.92,1.68c0.944,0.896,1.432,1.984,1.464,3.264c0.032,1.28-0.304,2.256-1.008,2.928
		c-0.208,0.208-0.96,0.664-2.256,1.368c-0.544,0.288-0.904,0.581-1.08,0.876c-0.176,0.296-0.264,0.724-0.264,1.284h-4.44
		c-0.112-2.128,0.448-3.536,1.68-4.224c0.464-0.224,0.928-0.456,1.392-0.696c0.56-0.336,0.84-0.728,0.84-1.176
		c0-0.816-0.464-1.224-1.392-1.224c-0.544,0-0.944,0.196-1.2,0.588C13.814,12.634,13.71,13.118,13.758,13.694z M12.462,25.118
		v-4.752h4.992v4.752H12.462z"/>
</g>
</svg>
