<?xml version="1.0" encoding="utf-8"?>
<!-- Generator: Adobe Illustrator 15.0.0, SVG Export Plug-In . SVG Version: 6.00 Build 0)  -->
<!DOCTYPE svg PUBLIC "-//W3C//DTD SVG 1.1//EN" "http://www.w3.org/Graphics/SVG/1.1/DTD/svg11.dtd">
<svg version="1.1" id="Calque_1" xmlns="http://www.w3.org/2000/svg" xmlns:xlink="http://www.w3.org/1999/xlink" x="0px" y="0px"
	 width="26.75px" height="214.5px" viewBox="0 0 26.75 214.5" enable-background="new 0 0 26.75 214.5" xml:space="preserve">
<g>
	<path fill="#FFFFFF" d="M21.375-356.5c0-4.418-3.582-8-8-8s-8,3.582-8,8s3.582,8,8,8S21.375-352.082,21.375-356.5z M6.875-356.5
		c0-3.59,2.91-6.5,6.5-6.5s6.5,2.91,6.5,6.5s-2.91,6.5-6.5,6.5S6.875-352.91,6.875-356.5z"/>
	<path fill="#FFFFFF" d="M10.332-358.957l-1.414,1.414l4.457,4.457l4.457-4.457l-1.414-1.414l-3.043,3.043L10.332-358.957z"/>
</g>
<g>
	<path fill="#FFFFFF" d="M5.375-232.957c0,4.418,3.582,8,8,8s8-3.582,8-8s-3.582-8-8-8S5.375-237.375,5.375-232.957z
		 M19.875-232.957c0,3.59-2.91,6.5-6.5,6.5s-6.5-2.91-6.5-6.5s2.91-6.5,6.5-6.5S19.875-236.547,19.875-232.957z"/>
	<path fill="#FFFFFF" d="M16.418-230.5l1.414-1.414l-4.457-4.457l-4.457,4.457l1.414,1.414l3.043-3.043L16.418-230.5z"/>
</g>
<g>
	<circle fill="#2E3135" cx="13.375" cy="15" r="13"/>
	<path fill="#FFFFFF" d="M8.52,11.773l-2.256,2.256l7.112,7.112l7.11-7.112l-2.256-2.256l-4.854,4.854L8.52,11.773z"/>
</g>
<g>
	<circle fill="#2E3135" cx="13.375" cy="194.505" r="13"/>
	<path fill="#FFFFFF" d="M13.375,192.876l4.855,4.855l2.256-2.256l-7.111-7.112l-7.112,7.112l2.256,2.256L13.375,192.876z"/>
</g>
<g>
	<path fill="#FFFFFF" d="M13.375-119.957c-4.418,0-8,3.582-8,8s3.582,8,8,8s8-3.582,8-8S17.793-119.957,13.375-119.957z
		 M13.375-105.457c-3.59,0-6.5-2.91-6.5-6.5s2.91-6.5,6.5-6.5s6.5,2.91,6.5,6.5S16.965-105.457,13.375-105.457z"/>
	<path fill="#FFFFFF" d="M10.918-108.914l1.414,1.414l4.457-4.457l-4.457-4.457L10.918-115l3.043,3.043L10.918-108.914z"/>
</g>
</svg>
