<?xml version="1.0" encoding="UTF-8" standalone="no"?>
<svg xmlns="http://www.w3.org/2000/svg" height="25" width="25" version="1.1" viewBox="0 0 149.15041 149.14843">
<path fill="#839098" d="m5 0c-2.77 0-5 2.23-5 5v139.15c0 2.77 2.23 5 5 5h139.15c2.77 0 5-2.23 5-5v-139.15c0-2.77-2.23-5-5-5h-139.15zm10.734 10.732h117.68c2.77 0 5 2.23 5 5v117.68c0 2.77-2.23 5-5 5h-117.68c-2.77 0-5.002-2.23-5.002-5v-117.68c0-2.77 2.232-5 5.002-5zm8.332 8.334c-2.77 0-5 2.23-5 5v101.02c0 2.77 2.23 5 5 5h101.02c2.77 0 5-2.23 5-5v-101.02c0-2.77-2.23-5-5-5h-101.02zm92.346 7.5195c1.875 0 3.1348 0.17577 3.7793 0.52734 0.64453 0.35156 0.9668 0.79101 0.9668 1.3184 0 0.82031-0.9668 2.4316-2.9004 4.834-22.617 27.188-43.594 55.898-62.93 86.133-1.3477 2.1094-4.1016 3.1641-8.2617 3.1641-4.2188 0-6.709-0.1758-7.4707-0.5274-1.9922-0.8789-4.336-5.3613-7.0312-13.447-3.0469-8.9649-4.5703-14.59-4.5703-16.875 0-2.4609 2.0508-4.834 6.1524-7.1191 2.5195-1.4062 4.7461-2.1094 6.6797-2.1094 2.2852 0 4.0137 1.875 5.1855 5.625 2.3438 7.0312 4.0137 10.547 5.0098 10.547 0.76172 0 1.5527-0.5859 2.373-1.7578 16.465-26.367 31.699-47.695 45.703-63.984 3.6328-4.2188 9.4043-6.3281 17.314-6.3281z"/>
</svg>
