<?xml version="1.0" encoding="utf-8"?>
<!-- Generator: Adobe Illustrator 15.0.0, SVG Export Plug-In . SVG Version: 6.00 Build 0)  -->
<!DOCTYPE svg PUBLIC "-//W3C//DTD SVG 1.1//EN" "http://www.w3.org/Graphics/SVG/1.1/DTD/svg11.dtd">
<svg version="1.1" id="Calque_1" xmlns="http://www.w3.org/2000/svg" xmlns:xlink="http://www.w3.org/1999/xlink" x="0px" y="0px"
	 width="134px" height="113px" viewBox="0 0 134 113" enable-background="new 0 0 134 113" xml:space="preserve">
<g>
	<g>
		<path fill-rule="evenodd" clip-rule="evenodd" d="M12.635,12.185c2.307,0.658,3.622,2.31,5.437,3.459
			c-0.512,0.658-1.019,0.852-1.153,2.142C16.171,15.238,13.602,14.512,12.635,12.185z"/>
		<path fill-rule="evenodd" clip-rule="evenodd" d="M24.661,18.609c-0.217-0.168-0.607-0.162-0.824-0.33c0-0.219,0-0.439,0-0.659
			c0.165,0,0.33,0,0.494,0c-0.041,0.179-0.328,0.112-0.33,0.33C24.105,18.287,24.834,17.997,24.661,18.609z"/>
		<path fill-rule="evenodd" clip-rule="evenodd" d="M20.048,16.797c-0.457-0.498-0.618-0.308-1.483-0.659
			c0.234-0.494,1.346-0.387,1.153,0c0.21-0.037,0.216-0.492,0-0.494c2.099,0.482,3.597,2.993,5.601,4.119
			c0.179-0.137-0.49-0.819-0.988-0.824c0.815-0.291,0.201-1.047,0.165-1.318c0.113-0.26,0.656,0.429,1.318,0.165
			c0.068,0.397-0.301,0.358-0.165,0.824c0.338-0.046,0.329-0.44,0.494-0.659c0.536,0.739,1.239,0.266,2.142,0.494
			c0.187-0.528,0.745-0.683,1.153-0.989c-0.888-0.54-2.6-0.256-3.625-0.659c1.286-0.682,2.845-0.071,4.119,0.494
			c2.785-0.148,2.932,2.34,4.778,3.13c-0.073-0.147-0.145-0.295-0.33-0.33c0.75-0.034,1.934,0.919,2.471,1.647
			c5.444,1.146,7.277,5.902,10.873,8.896c-0.08,0.519,0.505,0.373,0.329,0.988c0.864,0.049,1.749,0.838,2.801,1.153
			c1.856,0.556,4.341,0.044,6.425,0.33c1.512,0.207,2.389,1.253,3.625,0.988c-0.004,0.16-0.202,0.128-0.33,0.165
			c7.563,1.317,18.225,1.383,27.677,1.977c5.039,0.317,10.101-0.766,14.498-0.165c2.205,0.302,6.364,2.963,7.908,4.283
			c0.531,0.454,0.742,1.343,1.318,1.647c0.512,0.27,1.189,0.33,0.824,1.318c0.969-0.09,0.621,1.137,1.647,0.988
			c0.244-0.072-0.065-0.21,0-0.494c0.662-0.023,0.436,0.423,0.33,0.824c0.783,0.292,0.902-0.267,1.318,0
			c0.292-0.003-0.263-0.777,0.165-0.988c0.809,0.279,0.627-0.264,1.318,0c0.416-0.217-0.432-0.541-0.33-0.988
			c0.452,0.281,0.689,0.399,0.824-0.33c-0.407-0.795-0.778,0.372-1.318-0.165c0.063-0.493,1.498-0.14,2.142-0.494
			c-0.242,3.794-2.727,7.056-4.118,11.038c-1.213,3.469-2.323,7.333-3.46,11.038c1.425,3.814-1.477,5.193-1.977,7.578
			c-0.331,1.576-1.218,2.881-1.153,4.283c0.096,2.089,1.138,4.005,0.824,6.919c-0.252,2.34-1.424,4.295-1.647,6.589
			c-0.284,2.909,0.323,5.533,0.824,7.908c-1.199,1.163-2.101,2.622-2.142,4.942c-1.667,0.873-5.29,2.034-6.919,0.494
			c0.171-1.256,0.853-2.002,1.483-2.801c1.769,0.299,3.433-4.367,3.13-5.601c-0.739-3.014-4.333,0.191-4.942,1.647
			c-1.109-0.154-2.319-0.207-3.624-0.165c0.2-2.116,1.296-4.183,2.471-4.778c0.991-2.505,2.136-8.735,1.153-13.179
			c-0.483-2.186-2.02-4.356-2.8-6.425c-0.449-1.188-0.91-2.213-1.813-2.8c-7.841,0.469-15.489,5.949-24.546,2.306
			c-0.312-1.178-2.328-2.125-3.459-0.988c1.341,2.461,0.511,6.185,0.824,9.061c0.075,0.687,0.369,1.177,0.329,1.812
			c-0.029,0.467-0.393,0.66-0.494,1.153c-0.843,4.097,3.611,6.979,2.801,11.367c-1.351,0.517-0.796,2.938-1.153,4.448
			c-1.977,0.918-5.227,0.483-6.59-0.659c1.176-3.269,3.289-5.365,2.636-9.72c-0.514-3.428-3.196-7.268-3.295-10.873
			c0.829-1.143-0.866-2.36-1.483-3.13c-3.748-0.14-1.96,4.659-0.988,8.402c0.291,1.122,1.132,2.334,1.153,3.459
			c0.013,0.714-0.55,1.399-0.659,2.142c-0.327,2.237,0.476,4.829-0.33,6.919c-1.932,1.677-5.459,0.963-5.931-1.483
			c2.119-3.202,3.801-6.469,3.13-11.038c-0.271-1.845-2.302-3.616-2.636-6.095c-0.198-1.472,0.368-3.328-0.329-4.284
			c-1.439-1.974-5.455-2.451-7.414-4.283c-2.355-2.203-2.341-4.31-3.459-7.249c-0.056-0.605,0.946-0.153,0.659-0.988
			c0.245,0.14,0.354,0.415,0.33,0.824c0.397-1.111-1.202-2.019-1.482-3.625c-0.352-0.077-0.314,0.235-0.33,0.494
			c-0.303-0.281-0.442-0.826,0-0.988c-1.983-1.971-0.498-7.41-3.295-8.567c0.121-0.154,0.299-0.25,0.494-0.329
			c0.071-0.273-0.614,0.015-0.659,0.165c-0.434-0.17-0.555-0.653-0.989-0.824c-0.119-1.742-0.572-3.657-1.482-4.942
			c-2.052-2.895-5.166-6.57-8.896-6.754c-0.184-0.009-0.637,0.221-0.824,0.165c-1.087-0.329-1.419-1.372-1.812-2.307
			c-0.452,0.355,0.164,0.756-0.165,1.153c0.22,0,0.439,0,0.659,0c-0.201,0.234-0.628,0.374-0.824,0.165
			c-0.317,0.726-0.519,1.568-1.153,1.977c-1.579-0.202-2.481-0.928-4.119-1.153c-0.003-0.241,0.695-0.522,0-0.494
			c0.792-0.936,0.46-1.152,1.647-1.483c0.851-1.219,1.579-1.915,2.8-2.965c-0.046-0.338-0.44-0.329-0.659-0.494
			c0.505-0.195,0.702-0.043,1.318-0.33c-0.278-0.557,0.047-0.695-0.33-1.153c-0.259,0.071-0.141,0.518-0.659,0.329
			c0.91-0.646-0.774-0.288-0.165-0.988c-0.33,0-0.659,0-0.988,0c0.042,0.537-0.689,0.388-0.33,1.153
			c-0.565-0.281-1.064,0.225-1.482-0.33c0.202,0.767-0.915,0.345-0.495,1.483c-0.266,0.046-0.283-0.156-0.494-0.165
			c0.081,0.229,0.093,0.805,0.33,0.824c-0.139,0.428-0.723-0.317-0.988,0.165c0.508,0.442-0.421,1.127,0,1.482
			c-0.208,0.041-0.167,0.328,0,0.33c-0.046,0.389-0.44-0.189-0.659-0.165c0.106,0.204-0.074,0.733,0,0.989
			c-0.025,0.41-0.558,0.048-0.659,0c0.281,0.268,0.174,0.925,0.659,0.988c-0.045,0.389-0.614-0.015-0.659-0.165
			c0.2,0.632-0.956,0.077-0.988,1.153c1.032,0.152,1.106,1.281,2.307,1.977c-2.426,0.27-5.708,4.141-8.402,1.977
			c-1.096-0.88-1.925-4.164-1.647-6.26c0.141-1.07,0.94-2.728,1.812-3.954c1.902-2.676,4.479-5.815,6.096-8.237
			c-0.465,2.007-2.404,3.966-3.46,5.931c0.326,0.085,0.439-0.971,0.494-0.165c0.031-0.466,0.281-0.546,0.989-0.659
			c-0.735-0.379,0.319-0.71,0.33-1.318c0.56,0.312-0.282,0.578-0.165,0.988c0.581-0.627,1.05-1.367,1.647-1.977
			c0.079-2.408,2.294-2.382,2.801-4.284c-0.069-0.37-0.874-0.004-0.989-0.329c-0.099-0.342,0.725-0.562,0.33-0.659
			c0.806-0.204,1.643-0.212,1.483,0.33C19.9,17.2,19.533,17.379,20.048,16.797z M31.25,24.046c-0.497,0.379-1.038-0.604-1.977-0.33
			c0.631,0.794-1.358,0.683-1.153,0.989c1.33,0.171,1.729,0.44,2.636,0.824c0.084,0.959,0.589,1.498,0.824,2.306
			c0.08-0.293,0.176,0.071,0.33,0.165c-0.253-0.712-0.311-1.688,0-0.989c0.407-0.859-0.462-1.597,0-2.636
			c-0.727-0.232-0.002,0.986-0.494,0.988c0.132-0.571-0.246-0.633-0.165-1.153C31.342,24.211,31.438,24.077,31.25,24.046z
			 M21.366,25.693c-0.101,0.009-0.195,0.025-0.165,0.165c0.353-0.044,1.758,0.128,1.318-0.165c-0.602,0.107-0.877-0.111-1.153-0.33
			C21.366,25.474,21.366,25.583,21.366,25.693z M9.669,29.153c0.09,0.24-0.192,0.852,0.165,0.824
			c0.036-0.599,0.802-0.583,1.153-0.494c-0.428,0.451-0.63,1.127-0.988,1.647c0.45,0.064,1.361,0.016,1.812,0.494
			c-0.466,0.136-0.427-0.232-0.824-0.165c0.242,0.582,1.257,0.391,1.977,0.494c-0.354-0.597,1.118-0.167,0.494-0.494
			c-0.247-0.028-0.608,0.059-0.659-0.165c1.048,0.028,0.495-0.521,1.153-0.824c-0.219-0.165-0.497-0.271-0.659-0.494
			c0.504-0.119,0.484,0.284,0.988,0.165c0.078-0.679-0.443,0.158-0.494-0.494c0.674,0.077-0.005-0.415,0-0.659
			c0.247-0.028,0.608,0.059,0.659-0.165c-0.658-0.605-0.704-0.956-0.988-1.483c-0.43,0.064-0.904,0.084-1.153,0.33
			c0.284-0.009,0.422,0.127,0.494,0.33c-0.594,0.098-1.104,0.278-1.647,0c0.448,0.765-0.45,0.906-0.824,1.318
			c0.377-1.069,1.027-1.621,1.647-1.647c-0.259-0.016-0.571,0.022-0.494-0.33c0.182-0.242,1.05-1.235,0.659-0.988
			c-0.218,0.002-0.15,0.289-0.33,0.329c-0.041-0.48,0.31-0.568,0.494-0.824C10.971,26.5,11.06,28.566,9.669,29.153z M13.294,34.095
			c0.256,0.311,0.642-0.236,0.988,0.165c0.176-0.154,0.051-0.608,0.494-0.495c0.076-0.515-0.352-0.526-0.824-0.494
			C13.942,33.755,13.449,33.757,13.294,34.095z M33.722,36.896c-0.1,0.009-0.195,0.024-0.165,0.165
			c0.967-0.308,0.108,1.21,0.824,1.153c-0.059-0.71-0.098-1.439-0.659-1.647C33.722,36.676,33.722,36.786,33.722,36.896z
			 M78.697,45.298c-0.624-0.09-0.892-0.536-1.647-0.494c-0.049,0.324,0.222,0.327,0.329,0.494c-0.422,0.017-0.785,0.093-0.988,0.33
			c0.219,0.404,0.497-0.297,0.659,0.165c-0.331,0.335-0.043,0.439,0.165,0.659c-0.231,0.208-0.009,0.869-0.659,0.659
			c0.006,0.543,0.469,0.63,0.989,0.659c0.145-0.529-0.427-0.342-0.494-0.659c0.218-0.002,0.15-0.289,0.329-0.33
			c0.266,0.189,0.522,0.647,0.824,0.33c0.129-0.733-0.883-0.324-0.824-0.988c1.128,0.54,2.985,0.877,4.119,0.494
			c-0.65-0.119-1.357-0.18-1.647-0.659c0.181,0.099,1.308,0.087,1.647-0.165c-0.779-0.099-1.159-0.599-1.482-1.153
			c0.414,0.037,0.907,0.835,1.153,0.494c-0.146-0.348-0.702-0.286-0.659-0.824c0.659,0.333,1.54,1.312,2.306,0.989
			c-0.259-0.29-0.882-0.216-1.153-0.494c0.002-0.218,0.289-0.151,0.329-0.33c-0.452,0.024-0.849,0.031-0.494-0.33
			c-0.456,0.021-0.565,0.314-0.33-0.165c-0.841,0.448-1.243-0.506-1.482,0.329c0.136-0.502,0.02-0.838,0.165-0.988
			c0.194,0.203,0.815,0.814,1.153,0.33c-0.756,0.033-1.061-0.563-0.494-0.988c-1.168-0.391-2.034,0.875-2.636,0
			c0.648-0.077,0.855,0.345,1.153-0.165c-0.921-0.098-1.592,0.055-1.977,0.494c1.02,0.362,1.505,0.472,2.142,0.989
			c-0.469-0.021-2.293-0.11-2.142,0C77.589,44.428,78.132,44.874,78.697,45.298z M81.991,45.792c0.723,0.011,0.979,0.316,1.483,0
			C82.987,45.646,82.221,45.296,81.991,45.792z M80.509,43.156c0.389,0.325,1.103,0.325,1.647,0.494
			C82.102,43.094,80.872,42.857,80.509,43.156z M91.382,43.98c-0.128-0.037-0.192-0.138-0.165-0.33
			c-0.75-0.202-0.646,0.452-1.318,0.33c0.013-0.256-0.479-0.114-0.165,0C90.021,44.232,91.198,44.628,91.382,43.98z M89.24,43.98
			c-0.739,0.462-1.05-0.548-1.647,0.165C88.309,44.532,88.777,44.747,89.24,43.98z M91.217,45.133
			c-0.031-0.694-0.87-0.679-0.988-0.494C90.565,44.796,90.88,44.975,91.217,45.133z M40.476,45.957
			c-0.521,0.193-1.126,0.301-1.482,0.659C39.67,46.579,40.072,46.267,40.476,45.957z M80.179,47.769
			c-0.646-0.232-1.244-0.513-1.647-0.989C78.713,47.373,79.591,48.131,80.179,47.769z M77.049,50.734
			c0.12,0.449-0.328,0.332-0.33,0.659c0.451,0.83,1.946,1.248,1.812,2.142c0.227-0.212,0.163-0.715,0.165-1.153
			c-0.64,0.09-0.387-0.711-0.824-0.824c0.428-0.444,0.497,0.201,0.988,0.165c-0.211-0.667-1.006-0.751-1.153-1.482
			c0.22,0,0.439,0,0.659,0c-0.189-0.524-0.329-1.1-0.824-1.318c-0.103,0.192-0.084,0.431-0.494,0.659
			c0.144,0.79,0.692,1.175,0.988,1.812C77.691,51.19,77.395,50.938,77.049,50.734z M42.124,50.899
			c-0.196,0.49,0.694,0.708,0.824,0.33c-0.585,0.256-0.099-0.56-0.494-0.494C42.417,50.863,42.315,50.926,42.124,50.899z
			 M42.947,54.194c0.035-0.199,0.183-0.101,0.33,0c-0.067-0.397,0.301-0.358,0.165-0.824c-0.408,0.024-0.799,0.031-0.823-0.33
			c0.38-0.327,0.183,0.042,0.494,0.165c0.129-0.569-0.154-0.725-0.494-0.824C42.189,52.971,42.843,53.618,42.947,54.194z
			 M42.947,54.523c0.34,0.044,0.04,0.729,0.494,0.659c-0.046-0.431,0.061-0.708,0.495-0.659c0.046-0.375-0.04-0.62-0.33-0.659
			C43.477,54.511,43.307,54.348,42.947,54.523z M78.367,55.841c0.04-0.309,0.271,0.093,0.33-0.165
			c-0.434-0.171-0.555-0.653-0.989-0.824C77.842,55.268,78.15,55.509,78.367,55.841z M43.771,56.335
			c0.092-0.475,0.12-0.286,0.33-0.824c-0.287,0.012-0.512-0.037-0.659-0.165C43.444,55.784,43.35,56.317,43.771,56.335z
			 M77.378,56.5c-0.081,0.517,0.568,0.435,0.165,0.823c0.622-0.253,0.613-1.58-0.33-1.977C77.111,55.793,78.219,56.365,77.378,56.5z
			 M78.038,56.83c0.585,0.256,0.1-0.56,0.494-0.494c0.484,0.34,0.568,1.08,1.153,1.318c0.195-0.648-0.405-1.318-1.318-1.647
			C78.49,56.513,77.915,56.323,78.038,56.83z M78.532,57.983c0.019-0.77,0.302,0.117,0.494,0.165
			c0.351-0.399-0.367-0.729-0.659-0.988C78.457,57.398,78.174,58.011,78.532,57.983z M44.265,59.466
			c-0.109-0.448-0.104-1.862-0.329-1.647C43.823,58.615,43.746,59.02,44.265,59.466z M80.509,59.63
			c-0.141-0.519-0.306-1.012-0.824-1.153C79.721,59.1,80.064,59.416,80.509,59.63z M78.202,60.29
			c0.026-0.194-0.028-0.468,0.165-0.495c0.009,0.101,0.024,0.195,0.165,0.165c0.046-0.375-0.04-0.62-0.33-0.659
			C78.098,59.474,77.875,60.713,78.202,60.29z M78.038,61.937c-0.381-0.673,0.047-2.321-0.824-2.142
			c0.485,0.261,0.363,1.134,0,0.989C77.603,61.054,77.683,61.632,78.038,61.937z M44.265,63.584c0.817,0.007,0.297-0.618,0-0.824
			c-0.017-0.185,0.24-0.256,0-0.329C43.894,62.787,44.402,62.993,44.265,63.584z M48.219,64.243c0.187-0.027,0.039-1.559-0.33-0.988
			C48.229,63.45,47.718,63.968,48.219,64.243z M75.566,64.737c-0.111-0.709,0.179-1.33-0.33-1.318
			C75.034,63.527,75.403,64.45,75.566,64.737z M71.118,64.243c0.019,0.201,0.049,0.39,0.33,0.33
			c0.288-0.738-0.923-0.819-0.988-0.659C70.795,64.208,70.506,64.521,71.118,64.243z M67.165,66.549
			c-0.078-0.778,0.206-0.307,0.494-0.165c0.088-0.461,0.242-0.856,0.33-1.318c-0.327-0.002-0.209-0.45-0.659-0.33
			C67.131,65.157,66.138,66.421,67.165,66.549z M75.402,66.22c0.258-0.278-0.211-0.757-0.33-1.153
			c-0.052,0.223-0.234,0.314-0.165,0.659C75.493,65.47,75.007,66.285,75.402,66.22z M74.578,67.373
			c0.319-0.23,0.488-0.609,0.659-0.988c-0.38,0.05-0.183-0.476-0.494-0.494C74.991,66.589,74.305,67.195,74.578,67.373z
			 M56.456,69.021c-0.095-0.29,0.199-0.968-0.165-0.988c0.055,0.659-0.293,0.915-0.165,1.647c0.736,0.017,0.831-1.468,0.494-1.977
			C56.521,68.097,56.828,68.898,56.456,69.021z"/>
		<path fill-rule="evenodd" clip-rule="evenodd" d="M23.014,16.797c-0.172-0.534,0.458,0.516,0.988,0.33
			C23.734,17.884,23.302,16.992,23.014,16.797z"/>
		<path fill-rule="evenodd" clip-rule="evenodd" d="M115.764,32.942c-0.059,1.175-0.406,0.116-0.824-0.494
			c0.253,1.632,0.766,2.168,0.659,4.119c-0.29-0.237-0.375-0.151-0.329,0.33c-1.066-1.186-1.421-3.082-1.977-4.778
			c1.633-0.626,2.971,0.271,2.965,1.813C115.952,34.384,115.882,33.222,115.764,32.942z"/>
		<path fill-rule="evenodd" clip-rule="evenodd" d="M117.411,37.39c0.657-0.393,0.066-2.028,0-3.625
			c1.27,1.562,0.666,4.503,0.494,6.754c-0.212-0.227-0.716-0.163-1.153-0.165c0.311-0.256-0.236-0.642,0.165-0.988
			c0.258,0.058-0.145,0.29,0.165,0.329c0.309-0.515,0.369-1.279,0.824-1.647C117.586,38.073,117.676,37.764,117.411,37.39z"/>
		<path fill-rule="evenodd" clip-rule="evenodd" d="M77.708,45.957c-0.019-0.35,1.261,0.301,0.659-0.329
			c0.443-0.326,0.886,0.755,1.482,0.824C79.151,46.573,78.492,46.095,77.708,45.957z"/>
		<path fill-rule="evenodd" clip-rule="evenodd" d="M78.532,44.309c0.046,0.339,0.44,0.329,0.659,0.495
			c0.299,0.257-1.37-0.094-1.318-0.659c0.307-0.158,0.55,0.494,0.659,0C78.719,44.176,78.623,44.31,78.532,44.309z"/>
		<path fill-rule="evenodd" clip-rule="evenodd" d="M116.258,32.613c0.495,0.165,0.686,0.632,1.153,0.824
			c-0.19,0.194-0.187,0.582-0.165,0.988c-0.342-0.042-0.045-0.724-0.329-0.824c-0.618,0.129,0.433,1.02-0.33,0.824
			C116.767,33.531,116.255,33.33,116.258,32.613z"/>
	</g>
</g>
</svg>
