<?xml version="1.0" encoding="utf-8"?>
<!-- Generator: Adobe Illustrator 15.0.0, SVG Export Plug-In . SVG Version: 6.00 Build 0)  -->
<!DOCTYPE svg PUBLIC "-//W3C//DTD SVG 1.1//EN" "http://www.w3.org/Graphics/SVG/1.1/DTD/svg11.dtd">
<svg version="1.1" id="Calque_1" xmlns="http://www.w3.org/2000/svg" xmlns:xlink="http://www.w3.org/1999/xlink" x="0px" y="0px"
	 width="134px" height="113px" viewBox="0 0 134 113" enable-background="new 0 0 134 113" xml:space="preserve">
<g>
	<path fill-rule="evenodd" clip-rule="evenodd" d="M128.698,68.863c-3.646-0.208-0.659,6.409-3.774,6.218
		c-1.093-2.178-0.45-4.639-0.623-6.953c-0.164-2.189-0.888-4.297-1.524-6.381c-0.537-1.757-0.532-3.94-1.215-5.596
		c-0.606-1.47-0.118-2.344-0.028-4.052c0.18-3.397-3.23-3.374-3.543-0.047c-0.468,4.975-3.417,8.346-1.471,13.465
		c1.317,3.464,4.582,7.725,3.184,11.586c-1.549,4.278-1.727,7.507-1.727,12.1c0,2.282-0.088,4.635-0.803,6.823
		c-1.376,1.215-2.335,1.541-1.253,3.553c2.587,4.814-6.441,3.001-8.363,2.999c0.284-0.993,1.468-1.804,0.49-2.923
		c-1.483-1.697-1.465-1.178-0.598-3.699c1.247-3.624,2.512-7.288,2.987-11.108c0.954-7.673-3.475-13.514-6.673-20.113
		c-1.312-2.706-3.275-5.499-5.559-7.483c-2.53-2.198-5.025-0.164-7.271,1.271c-2.149,1.373-5.707,2.615-8.26,2.939
		c-1.487,0.189-2.931-0.201-4.413-0.104c-1.815,0.118-3.501,0.7-5.377,0.725c-3.217,0.042-6.235-0.206-9.408-0.453
		c-4.44-0.347-1.949,5.072-1.791,7.219c0.232,3.174,0.77,6.214,1.114,9.409c0.306,2.832-0.467,5.862,0.516,8.669
		c0.998,2.849,3.226,4.716,0.773,7.413c-2.141,2.355,1.718,4.449-0.342,6.156c-1.495,1.238-4.558,0.597-5.58,1.678
		c-2.282,2.412-5.114,1.704-8.197,1.875c-0.193-0.157,3.697-7.038,3.897-8.08c0.388-2.016,0.491-4.093,0.406-6.142
		c-0.106-2.574-1.176-4.555-1.592-7.001c-0.473-2.775-0.094-5.508-0.908-8.251c-0.733-2.472-1.911-4.837-2.31-7.4
		c-0.359-2.309-0.389-4.595-1.882-6.525c-1.395-1.802-3.472-2.993-4.741-4.894c-1.273-1.907-0.609-4.255-0.521-6.382
		c0.11-2.627-0.801-5.204-1.962-7.521c-2.19-4.372-4.313-9.354-7.299-13.246c-3.384-4.409-5.817-0.969-9.948,0.22
		c-2.132,0.614-4.042,1.78-5.855,3.028c-1.201,0.826-2.955,2.554-4.541,2.485c-2.883-0.567-3.992-3.388-3.56-6.061
		c0.584-3.606,3.738-5.821,5.932-8.472c2.298-2.776,3.475-6.213,5.656-8.988c0.759-0.966-0.096-3.197-0.471-4.239
		c-0.423-1.177,0.961-2.065,0.992-1.921c2.792,2.402,5.639,4.763,9.117,6.101c4.09,1.573,8.519,1.11,12.551,2.874
		c3.858,1.688,7.174,4.335,10.894,6.277c3.83,1.999,6.565,5.356,10.2,7.523c2.438,1.455,6.667,2.817,9.475,3.198
		c4.604,0.625,9.218-1.938,13.755-2.58c7.455-1.053,16.619-5.771,23.302,0.45c0.931,0.866,2.15,1.033,3.105,1.908
		c1.788,1.639,2.733,2.342,5.195,2.619c2.511,0.283,6.974,5.113,7.087,7.673C126.366,50.3,130.367,59.017,128.698,68.863
		C125.052,68.655,130.255,59.68,128.698,68.863z M57.059,90.974c-0.313-0.009-0.19-0.435-0.623-0.33
		c-0.411,1.654,0.275,2.776,1.651,3.508c0.056-0.812,1.001-1.228-0.271-1.898c0.136-0.657,0.783,0.131,1.111-0.29
		c-0.282-1.238-0.313-1.5-1.688-1.932C57.141,90.307,57.407,90.962,57.059,90.974C56.746,90.964,57.407,90.962,57.059,90.974z
		 M56.083,98.834c0.32-0.291,0.094-0.743,0.026-1.103C55.332,97.758,54.997,98.92,56.083,98.834z"/>
</g>
</svg>
