<?xml version="1.0" encoding="utf-8"?>
<!-- Generator: Adobe Illustrator 15.0.0, SVG Export Plug-In . SVG Version: 6.00 Build 0)  -->
<!DOCTYPE svg PUBLIC "-//W3C//DTD SVG 1.1//EN" "http://www.w3.org/Graphics/SVG/1.1/DTD/svg11.dtd">
<svg version="1.1" id="Calque_1" xmlns="http://www.w3.org/2000/svg" xmlns:xlink="http://www.w3.org/1999/xlink" x="0px" y="0px"
	 width="134px" height="113px" viewBox="0 0 134 113" enable-background="new 0 0 134 113" xml:space="preserve">
<g>
	<g>
		<path fill="#39B54A" d="M9.931,48.227c-1.502,1.862-1.604,5.874-0.306,7.966c0.431,0.695,1.143,1.87,1.685,2.145
			c0.387,0.197,1.135,0.327,1.609,0.459c0.519,0.146,1.198,0.375,1.608,0.383c0.744,0.014,1.075-0.58,1.839-0.766
			c0.609-0.148,1.166,0.018,1.838-0.153c0.367-0.45,0.828-0.567,1.149-0.919c0.786-0.86,0.821-2.118,1.456-3.141
			c0.276-0.445,0.948-1.071,1.456-1.378c0.558-0.339,1.273-0.402,1.838-0.766c0.251-0.162,0.497-0.487,0.766-0.689
			c0.302-0.227,0.652-0.336,0.842-0.536c0.469-0.491,0.678-1.21,0.996-1.762c0.451-0.781,1.16-1.618,1.762-2.221
			c0.664-0.666,1.303-1.337,1.992-1.915c1.549-0.148,2.078,0.122,3.141,0.996c1.337,1.099,2.948,1.751,4.213,2.911
			c0.247,0.226,0.466,0.559,0.766,0.842c0.66,0.625,1.816,1.65,2.298,2.375c0.865,1.302,1.297,2.967,2.222,4.136
			c0.964,1.042,2.346,1.617,3.217,2.758c1.116,1.462,1.801,3.298,3.217,4.596c0.572,0.524,1.292,0.737,1.838,1.379
			c0.41,1.714,1.406,3.278,1.915,5.056c0.186,0.65,0.141,1.402,0.307,2.146c0.333,1.493,1.083,3.054,1.226,4.521
			c0.203,2.095-0.338,4.086,0,6.205c0.223,1.396,1.238,2.564,0.843,4.136c-0.515,2.042-2.872,2.831-3.371,4.75
			c-0.136,0.522,0.047,1.047-0.077,1.608c-0.12,0.541-0.738,0.859-0.996,1.455c-0.364,0.844-0.494,1.605-0.689,2.452
			c0.919,0.454,2.534,1.004,3.907,0.767c0.579-0.102,1.32-0.783,1.838-1.149c0.551-0.39,1.377-1,1.379-1.608
			c0.002-0.781-1.013-1.104-0.843-1.992c0.131-0.686,0.941-0.767,1.532-0.918c0.341-0.666,1.135-1.354,1.302-2.222
			c0.125-0.651-0.232-0.933-0.153-1.456c0.159,0.02,0.021,0.336,0.153,0.383c0.464-2.373-0.277-4.656-0.23-6.894
			c0.034-1.626,1.118-3.09,0.766-4.673c-0.2-0.898-0.985-1.771-1.073-2.758c-0.078-0.889,0.339-2.368,0.383-3.447
			c0.062-1.501,0.062-3.546,0.766-4.902c0.413-0.795,1.089-1.799,2.298-1.686c0.81,0.076,1.174,0.926,1.915,1.302
			c0.309,0.157,0.698,0.164,1.073,0.308c0.519,0.197,0.966,0.641,1.302,0.766c2.474,0.921,5.449-0.163,8.349,0.229
			c1.373,0.187,2.268,0.74,3.601,0.844c0.918,0.07,1.946-0.213,2.911-0.229c1.313-0.022,2.682,0.174,4.061,0.076
			c1.614-0.114,3.451-0.293,5.056-0.536c1.519-0.229,2.526-1.118,3.983-1.838c0.955-0.473,2.254-0.893,3.063-1.456
			c0.795-0.552,1.67-1.573,2.452-2.298c0.852-0.791,1.605-2.192,2.604-2.068c0.838,0.104,1.555,2.194,1.992,2.987
			c1.749,3.179,3.655,6.42,5.975,8.733c1.225,2.041,2.463,4.262,3.371,6.817c0.297,0.833,0.906,1.979,1.073,3.063
			c0.14,0.908,0,1.957,0,3.064c0,1.299,0.138,2.96-0.308,3.83c-0.305,0.6-1.037,1.268-1.607,1.762
			c-0.707,0.611-1.547,1.09-1.609,1.762c-0.037,0.404,0.326,0.84,0.308,1.227c-0.044,0.896-1.097,1.426-1.149,2.223
			c-0.031,0.467,0.239,0.922,0.461,1.379c1.189,0.104,2.021,0.274,3.369,0.383c0.979,0.078,3.395,0.137,3.524-0.689
			c0.049-0.311-0.487-0.71-0.459-1.148c0.084-1.328,1.854-1.303,3.141-1.532c0.222-1.181,0.347-3.009,0.229-4.673
			c-0.103-1.469-0.461-2.998-0.383-4.443c0.078-1.407,0.879-2.727,0.689-4.443c-0.095-0.867-0.486-1.955-0.383-3.063
			c0.085-0.903,0.553-1.675,0.383-2.528c-0.164-0.822-1.133-1.605-1.531-2.451c-0.554-1.17-0.729-2.732-1.227-4.213
			c-0.229-0.682-0.477-1.336-0.689-1.992c-0.449-1.389-1.201-3.016-0.842-5.209c0.145-0.884,1.008-1.898,1.456-2.681
			c1.026-1.796,1.739-3.67,2.757-5.439c0.524-0.91,1.151-1.885,1.379-2.681c0.157-0.549-0.162-1.917,0.844-1.992
			c1.178-0.087,1.108,1.22,0.996,2.528c-0.121,1.404,0.157,2.496,0,3.601c-0.168,1.179-1.069,2.175-1.379,3.294
			c-0.248,0.899-0.363,2.139-0.459,3.293c-0.138,1.646-0.225,3.74,0,5.516c0.118,0.943,0.498,1.961,0.766,2.911
			c0.133,0.474,0.166,1.009,0.307,1.532c0.116,0.436,0.398,0.863,0.459,1.302c0.069,0.503-0.087,1.024,0,1.532
			c0.1,0.576,0.592,0.966,0.459,1.686c0.53,0.159,0.857,0.521,1.379,0.689c1.229-3.121,0.399-8.426,0.689-12.563
			c0.154-2.206,0.738-4.353,0.919-6.435c0.094-1.085,0.086-2.032,0.153-3.064c0.24-3.731-1.654-6.021-2.146-9.575
			c-0.129-0.938-0.483-1.791-0.612-2.604c-0.142-0.888-0.191-1.617-0.308-2.375c-0.065-0.433,0.06-0.886,0-1.302
			c-0.104-0.727-0.705-1.451-1.149-2.221c-0.605-1.049-0.94-1.86-1.609-2.604c-2.824-1.976-5.217-4.383-9.729-4.673
			c-1.059-0.375-2.258-0.651-3.447-0.766c-1.205-0.117-2.639-0.301-3.982-0.153c-1.665,0.183-3.329,1.173-5.209,1.379
			c-0.329,0.036-0.604-0.038-0.919,0c-1.021,0.124-1.943,0.545-2.911,0.766c-3.273,0.747-6.65,1.34-9.958,1.838
			c-0.687,0.104-1.36,0.4-2.067,0.46c-0.647,0.054-1.339-0.054-1.992,0c-0.703,0.057-1.434,0.252-2.146,0.306
			c-1.782,0.135-3.733,0-5.668,0c-3.538,0-6.673-0.047-9.729-0.459c-0.449-0.061-0.852-0.259-1.302-0.307
			c-0.783-0.083-1.581-0.023-2.298-0.153c-0.334-0.06-0.596-0.26-0.919-0.306c-1.024-0.146-2.553,0-3.753,0
			c-0.915,0-2.934,0.286-3.601-0.153c-0.793-0.523-0.097-1.689-0.229-2.604c-0.257-1.771-3.443-2.213-5.132-2.681
			c-1.995-0.553-4.059-1.647-5.975-2.068c-0.877-0.192-1.819-0.313-2.681-0.459c-3.731-0.631-6.852-1.585-10.571-2.298
			c-0.694,0.841-0.448,2.617-1.532,2.911c-0.804,0.218-1.625-0.443-2.298-0.843c-0.705-0.418-1.435-0.728-1.992-1.149
			c-0.569-0.43-1.064-1.05-1.532-1.608c-0.403-0.481-0.926-1.477-1.379-1.762c-0.238-0.15-0.826-0.212-1.149-0.383
			c-1.196-0.631-1.72-2.502-2.604-3.447c-0.564-0.603-1.535-1.367-2.528-1.226c-0.749,0.106-1.074,0.908-1.762,0.919
			c-0.794,0.013-0.819-0.771-1.839-0.766c-0.685,0.833-0.199,2.031,0,2.911c0.093,0.409,0.073,0.839,0.153,1.226
			c0.196,0.942,0.597,1.854,0.996,2.757c0.376,0.852,0.842,1.739,1.379,2.298c0.504,0.526,1.497,0.938,2.298,1.456
			c1.262,0.815,2.694,1.991,1.072,3.37c-0.698,1.414-0.606,2.774-0.842,4.52c-0.073,0.54-0.383,1.091-0.536,1.685
			c-0.15,0.58-0.224,1.25-0.383,1.838c-0.567,2.089-1.578,4.196-1.838,6.435c-0.202,1.736-0.347,3.161-0.766,4.596
			c-0.034,0.117-0.133,0.174-0.153,0.307c-0.009,0.06,0.085,0.202,0.077,0.23c-0.028,0.091-0.196,0.083-0.229,0.153
			c-0.141,0.289-0.004,0.646-0.383,0.766c-0.088,0.318,0.161,0.298,0.153,0.536c-0.022,0.271-0.208-0.27-0.23,0
			c-0.018,0.136,0.077,0.384-0.153,0.307c0.013,0.217-0.066,0.525,0.153,0.536c-0.463,0.087-0.339,1.044-0.613,1.532
			C9.372,49.966,9.726,48.967,9.931,48.227z M23.643,36.583c-0.048-0.263,0.187-0.963,0.306-1.302
			c0.404-1.143,1.284-1.083,1.532-0.229c-0.215-0.409-0.387-0.387-0.996-0.383c-0.303,0.59-0.559,1.229-0.536,2.145
			c0.233,0.125,0.377,0.337,0.766,0.306c0.262-0.019,0.156-0.406,0.383-0.459C24.943,37.956,23.749,37.168,23.643,36.583z
			 M27.013,36.124c0.198,0.747,0.363,1.527,0.383,2.451c-0.387,0.233-1.262,0.369-1.609,0c-0.188-0.687-0.482-1.565-0.306-2.375
			c0.187-0.07,0.455-0.289,0.613-0.153c-1.012,0.581-0.212,3.536,1.072,2.222c-0.041-0.751-0.219-1.364-0.383-1.992
			c-0.244,0.026-0.81-0.312-0.46-0.383C26.489,36.035,26.854,35.976,27.013,36.124z"/>
	</g>
</g>
</svg>
