<?xml version="1.0" encoding="utf-8"?>
<!-- Generator: Adobe Illustrator 15.0.0, SVG Export Plug-In . SVG Version: 6.00 Build 0)  -->
<!DOCTYPE svg PUBLIC "-//W3C//DTD SVG 1.1//EN" "http://www.w3.org/Graphics/SVG/1.1/DTD/svg11.dtd">
<svg version="1.1" id="Calque_1" xmlns="http://www.w3.org/2000/svg" xmlns:xlink="http://www.w3.org/1999/xlink" x="0px" y="0px"
	 width="269.318px" height="272.728px" viewBox="0 0 269.318 272.728" enable-background="new 0 0 269.318 272.728"
	 xml:space="preserve">
<g>
	<circle fill="none" cx="134.296" cy="136.25" r="113.079"/>
	<path fill="#CCCCCC" d="M25.039,106.504l-17.258-1.177l0.713-2.176l8.681,0.75c2.141,0.178,4.265,0.403,5.896,0.623l0.015-0.047
		c-1.499-0.779-3.227-1.896-5.106-3.113l-7.341-4.762l0.705-2.15l8.721,0.71c2.038,0.171,4.069,0.364,5.824,0.678l0.016-0.046
		c-1.642-0.904-3.268-1.936-5.09-3.082l-7.349-4.737l0.689-2.104l14.455,9.736l-0.705,2.151l-8.957-0.71
		c-2.195-0.169-3.865-0.35-5.541-0.663l-0.016,0.047c1.498,0.779,2.935,1.668,4.798,2.934l7.554,4.988L25.039,106.504z"/>
	<path fill="#CCCCCC" d="M17.041,80.255l6.236,3.215l3.718-7.21l-6.238-3.216l1.003-1.946l14.907,7.685l-1.003,1.946l-6.988-3.603
		l-3.718,7.211l6.99,3.602l-1.004,1.947l-14.907-7.685L17.041,80.255z"/>
	<path fill="#CCCCCC" d="M35.589,70.827l3.319,4.451l-1.284,1.833L27.176,62.807l1.485-2.118l17.012,4.933l-1.327,1.895L39,65.958
		L35.589,70.827z M37.373,65.333l-4.909-1.403c-1.11-0.322-2.068-0.689-3.005-1.042l-0.029,0.041
		c0.652,0.76,1.365,1.563,2.001,2.434l3.031,4.127L37.373,65.333z"/>
	<path fill="#CCCCCC" d="M36.658,53.419l-3.336,3.858l-1.393-1.204l8.121-9.394l1.394,1.204l-3.354,3.879l11.295,9.766l-1.431,1.656
		L36.658,53.419z"/>
	<path fill="#CCCCCC" d="M51.697,55.061c1.133-0.211,2.472-0.82,3.56-1.842c1.614-1.516,1.756-3.253,0.598-4.486
		c-1.056-1.125-2.338-1.182-4.567-0.249c-2.676,1.148-4.897,1.254-6.497-0.45c-1.789-1.904-1.54-4.8,0.835-7.031
		c1.233-1.158,2.431-1.737,3.246-1.922l0.774,1.695c-0.603,0.123-1.742,0.544-2.848,1.583c-1.669,1.566-1.366,3.16-0.583,3.995
		c1.073,1.143,2.345,1.006,4.643,0.075c2.817-1.144,4.787-1.117,6.474,0.678c1.771,1.886,1.943,4.83-0.94,7.538
		c-1.178,1.107-2.807,1.954-3.868,2.132L51.697,55.061z"/>
	<path fill="#CCCCCC" d="M68.86,33.426c3.383,4.646,2.362,9.205-1.097,11.725c-3.602,2.621-8.131,1.641-11.118-2.462
		c-3.134-4.306-2.528-9.054,1.092-11.69C61.458,28.29,65.916,29.383,68.86,33.426z M58.466,41.301
		c2.124,2.917,5.582,4.369,8.357,2.349c2.777-2.021,2.486-5.717,0.246-8.795c-1.978-2.716-5.436-4.507-8.352-2.383
		C55.8,34.594,56.313,38.344,58.466,41.301z"/>
	<path fill="#CCCCCC" d="M85.935,33.258c-0.489,0.717-1.723,1.835-3.518,2.805c-4.159,2.245-8.686,1.297-11.31-3.562
		c-2.505-4.641-1.054-9.438,3.521-11.909c1.816-0.981,3.21-1.225,3.856-1.235l0.358,1.814c-0.89,0.028-2.06,0.321-3.285,0.983
		c-3.458,1.868-4.563,5.319-2.471,9.193c1.963,3.634,5.283,4.809,8.85,2.882c1.181-0.638,2.234-1.518,2.799-2.303L85.935,33.258z"/>
	<path fill="#CCCCCC" d="M82.094,17.255l2.013-0.796l2.973,7.518l0.069-0.027c0.179-0.766,0.375-1.485,0.567-2.15l2.45-7.737
		l2.499-0.988l-3.027,8.848l9.633,6.568l-2.383,0.942l-8.14-5.634l-0.827,2.306l2.352,5.944l-2.013,0.796L82.094,17.255z"/>
	<path fill="#CCCCCC" d="M124.556,15.983l0.168,1.583l-6.11,0.651l-0.169-1.583L124.556,15.983z"/>
	<path fill="#CCCCCC" d="M159.511,25.305c-0.827,0.263-2.487,0.384-4.498,0.042c-4.659-0.793-7.639-4.328-6.712-9.77
		c0.885-5.198,4.983-8.083,10.107-7.21c2.036,0.347,3.285,1.014,3.798,1.403l-0.836,1.649c-0.718-0.526-1.819-1.017-3.192-1.251
		c-3.874-0.659-6.869,1.379-7.608,5.719c-0.694,4.069,1.198,7.041,5.193,7.721c1.325,0.226,2.695,0.181,3.623-0.089L159.511,25.305z
		"/>
	<path fill="#CCCCCC" d="M168.579,10.95l-2.056,6.705l7.751,2.377l2.056-6.705l2.092,0.642l-4.915,16.026l-2.091-0.642l2.305-7.514
		l-7.753-2.377l-2.304,7.514l-2.093-0.642l4.915-16.026L168.579,10.95z"/>
	<path fill="#CCCCCC" d="M181.167,27.509l-3.787,4.063l-2.035-0.937l12.209-12.841l2.351,1.082l-1.813,17.626l-2.102-0.968
		l0.579-5.54L181.167,27.509z M186.89,28.282l0.505-5.082c0.119-1.15,0.309-2.159,0.488-3.144l-0.045-0.021
		c-0.632,0.777-1.295,1.623-2.038,2.403l-3.521,3.721L186.89,28.282z"/>
	<path fill="#CCCCCC" d="M189.741,37.461l9.007-14.147l2.015,1.283l-0.044,10.031c-0.026,2.313-0.137,4.338-0.408,6.2l0.076,0.02
		c1.035-1.996,2.089-3.744,3.492-5.948l3.77-5.919l1.721,1.096l-9.008,14.147l-1.848-1.177l0.08-10.038
		c0.016-2.203,0.1-4.42,0.383-6.393l-0.076-0.019c-1.031,1.851-2.093,3.564-3.59,5.915l-3.849,6.045L189.741,37.461z"/>
	<path fill="#CCCCCC" d="M213.153,53.873c-0.98-0.346-2.812-1.188-4.535-2.657c-1.931-1.647-3.102-3.495-3.334-5.754
		c-0.194-1.997,0.577-4.282,2.273-6.27c3.244-3.806,8.25-4.345,12.528-0.696c1.477,1.259,2.376,2.583,2.698,3.315l-1.562,0.989
		c-0.407-0.903-1.065-1.857-2.354-2.955c-3.104-2.647-6.777-2.443-9.506,0.756c-2.762,3.237-2.461,6.796,0.531,9.348
		c1.079,0.92,1.946,1.398,2.487,1.532l3.244-3.806l-2.574-2.196l1.13-1.325l4.202,3.584L213.153,53.873z"/>
	<path fill="#CCCCCC" d="M228.151,46.491l-12.035,11.681l-1.525-1.571l12.035-11.681L228.151,46.491z"/>
	<path fill="#CCCCCC" d="M218.54,60.542l13.077-10.487l1.494,1.862l-3.271,9.479c-0.771,2.18-1.526,4.061-2.383,5.736l0.066,0.042
		c1.622-1.555,3.182-2.87,5.22-4.504l5.472-4.389l1.276,1.591L226.413,70.36l-1.368-1.707l3.306-9.475
		c0.724-2.079,1.517-4.15,2.42-5.926l-0.065-0.043c-1.572,1.42-3.128,2.7-5.301,4.443l-5.589,4.481L218.54,60.542z"/>
	<path fill="#CCCCCC" d="M235.441,83.621c-0.817-0.642-2.283-2.029-3.443-3.973c-1.3-2.18-1.815-4.306-1.312-6.521
		c0.456-1.953,1.92-3.87,4.164-5.21c4.295-2.563,9.208-1.468,12.092,3.361c0.995,1.667,1.422,3.208,1.493,4.007l-1.799,0.436
		c-0.096-0.986-0.413-2.101-1.279-3.554c-2.093-3.504-5.637-4.49-9.248-2.334c-3.653,2.181-4.512,5.649-2.496,9.025
		c0.728,1.218,1.396,1.949,1.863,2.249l4.297-2.563l-1.735-2.906l1.496-0.893l2.832,4.744L235.441,83.621z"/>
	<path fill="#CCCCCC" d="M252.736,87.646l-1.9-4.734l1.709-0.687l4.625,11.525l-1.709,0.686l-1.909-4.757l-13.858,5.56l-0.814-2.032
		L252.736,87.646z"/>
	<path fill="#CCCCCC" d="M258.794,99.087l-6.778,1.801l2.081,7.837l6.779-1.801l0.562,2.116l-16.203,4.303l-0.562-2.115l7.596-2.018
		l-2.081-7.837l-7.596,2.018l-0.563-2.116l16.203-4.304L258.794,99.087z"/>
	<path fill="#CCCCCC" d="M254.727,124.038l-0.891-6.429l-5.985,0.829l0.996,7.193l-1.798,0.249l-1.297-9.361l16.604-2.3l1.245,8.992
		l-1.798,0.248l-0.945-6.823l-5.247,0.727l0.89,6.43L254.727,124.038z"/>
	<path fill="#CCCCCC" d="M247.551,135.069l16.93-3.538l-0.098,2.286l-8.559,1.628c-2.108,0.409-4.215,0.767-5.843,0.996l-0.002,0.05
		c1.653,0.345,3.619,0.951,5.757,1.614l8.354,2.595l-0.097,2.262l-8.585,1.677c-2.008,0.388-4.015,0.751-5.79,0.925l-0.003,0.049
		c1.825,0.427,3.669,0.978,5.733,1.588l8.355,2.57l-0.095,2.212l-16.546-5.458l0.096-2.261l8.813-1.742
		c2.158-0.431,3.813-0.709,5.513-0.86l0.003-0.05c-1.654-0.345-3.277-0.812-5.413-1.524l-8.62-2.757L247.551,135.069z"/>
	<path fill="#CCCCCC" d="M251.844,168.431c-5.627-1.169-7.934-5.23-7.063-9.421c0.906-4.36,4.919-6.677,9.889-5.645
		c5.212,1.083,7.955,5.007,7.044,9.392C260.778,167.263,256.741,169.448,251.844,168.431z M254.253,155.616
		c-3.532-0.733-7.069,0.514-7.768,3.875s2,5.904,5.728,6.679c3.288,0.683,7.052-0.313,7.787-3.846
		C260.734,158.792,257.833,156.36,254.253,155.616z"/>
	<path fill="#CCCCCC" d="M258.316,174.254c-0.171,1.1-0.551,2.653-1.03,4.04c-0.758,2.186-1.677,3.473-2.88,4.135
		c-0.974,0.531-2.217,0.628-3.462,0.196c-2.068-0.716-3-2.513-2.995-4.353l-0.07-0.025c-0.837,1.053-2.219,1.391-3.993,1.197
		c-2.389-0.247-4.046-0.4-4.771-0.283l0.731-2.115c0.56-0.096,2.022,0.016,4.144,0.276c2.348,0.286,3.472-0.298,4.185-2.131
		l0.668-1.927l-6.864-2.377l0.709-2.044L258.316,174.254z M250.392,173.802l-0.725,2.091c-0.756,2.187-0.038,3.988,1.772,4.614
		c2.045,0.708,3.449-0.463,4.198-2.626c0.342-0.987,0.508-1.693,0.536-2.078L250.392,173.802z"/>
	<path fill="#CCCCCC" d="M253.426,188.116l-0.935,1.98l-13.525-6.38l-3.058,6.481l-1.643-0.775l3.991-8.461L253.426,188.116z"/>
	<path fill="#CCCCCC" d="M247.374,199.946c-0.514,1.235-1.224,2.641-2.139,4.093c-1.658,2.63-3.471,4.104-5.39,4.63
		c-1.967,0.554-4.073,0.256-6.366-1.19c-2.314-1.46-3.744-3.391-4.227-5.517c-0.477-2.184,0.188-4.823,1.926-7.579
		c0.836-1.326,1.576-2.358,2.265-3.219L247.374,199.946z M233.678,193.87c-0.355,0.424-0.801,1.084-1.252,1.799
		c-2.48,3.936-1.619,7.419,2.211,9.834c3.332,2.13,6.651,1.577,9.093-2.295c0.597-0.947,0.963-1.716,1.163-2.267L233.678,193.87z"/>
	<path fill="#CCCCCC" d="M218.004,224.856c-4.199-3.925-4.058-8.594-1.136-11.719c3.041-3.254,7.674-3.146,11.381,0.319
		c3.89,3.636,4.191,8.413,1.134,11.684C226.24,228.503,221.657,228.271,218.004,224.856z M226.723,215.163
		c-2.635-2.463-6.306-3.237-8.648-0.729c-2.345,2.508-1.362,6.083,1.419,8.682c2.453,2.294,6.188,3.399,8.65,0.764
		C230.608,221.245,229.395,217.66,226.723,215.163z"/>
	<path fill="#CCCCCC" d="M210.051,220.452l10.497,13.08l-1.862,1.495l-9.484-3.27c-2.181-0.77-4.063-1.524-5.739-2.381l-0.044,0.066
		c1.558,1.622,2.874,3.182,4.51,5.22l4.392,5.473l-1.59,1.277l-10.498-13.08l1.708-1.371l9.479,3.305
		c2.08,0.723,4.151,1.517,5.93,2.419l0.043-0.065c-1.422-1.572-2.702-3.129-4.447-5.303l-4.485-5.588L210.051,220.452z"/>
	<path fill="#CCCCCC" d="M194.26,241.369l5.517-3.421l-3.185-5.136l-6.173,3.826l-0.956-1.542l8.031-4.98l8.834,14.246l-7.716,4.783
		l-0.956-1.543l5.855-3.631l-2.792-4.502l-5.517,3.422L194.26,241.369z"/>
	<path fill="#CCCCCC" d="M184.113,240.797c-1.137-0.188-2.604-0.071-3.975,0.52c-2.035,0.876-2.759,2.462-2.091,4.016
		c0.611,1.417,1.798,1.908,4.211,1.79c2.908-0.169,5.033,0.488,5.958,2.637c1.033,2.398-0.188,5.038-3.181,6.326
		c-1.554,0.67-2.877,0.807-3.708,0.703l-0.15-1.859c0.608,0.091,1.823,0.082,3.216-0.519c2.104-0.905,2.362-2.507,1.909-3.558
		c-0.62-1.439-1.862-1.744-4.341-1.652c-3.039,0.116-4.883-0.579-5.856-2.842c-1.024-2.377-0.183-5.205,3.451-6.77
		c1.485-0.64,3.305-0.881,4.364-0.688L184.113,240.797z"/>
	<path fill="#CCCCCC" d="M173.28,258.199l4.87-1.515l0.548,1.758l-11.854,3.688l-0.547-1.757l4.894-1.523l-4.435-14.253l2.09-0.65
		L173.28,258.199z"/>
	<path fill="#CCCCCC" d="M153.497,255.773l6.37-1.269l-1.181-5.931l-7.126,1.419l-0.355-1.781l9.275-1.847l3.276,16.45l-8.909,1.773
		l-0.355-1.781l6.761-1.347l-1.035-5.198l-6.37,1.268L153.497,255.773z"/>
	<path fill="#CCCCCC" d="M150.283,265.025c-1.025,0.265-2.376,0.531-4.11,0.683c-2.131,0.185-3.737-0.175-4.805-0.98
		c-0.961-0.716-1.637-1.88-1.766-3.367c-0.131-1.512,0.211-2.74,0.978-3.681c1.059-1.315,2.839-2.095,4.944-2.278
		c0.646-0.056,1.242-0.083,1.749-0.002l-0.583-6.691l2.157-0.188L150.283,265.025z M147.426,257.159
		c-0.482-0.083-1.082-0.081-1.8-0.019c-2.602,0.227-4.075,1.652-3.88,3.908c0.195,2.23,1.874,3.157,4.228,2.953
		c0.941-0.082,1.654-0.219,2.016-0.351L147.426,257.159z"/>
	<path fill="#CCCCCC" d="M127.94,254.491l2.161-5.118l2.233,0.179l-7.053,16.258l-2.58-0.208l-4.357-17.177l2.307,0.186l1.363,5.402
		L127.94,254.491z M122.299,255.733l1.273,4.945c0.284,1.121,0.454,2.134,0.623,3.121l0.049,0.004
		c0.326-0.947,0.659-1.969,1.088-2.958l2.027-4.704L122.299,255.733z"/>
	<path fill="#CCCCCC" d="M112.418,262.386l5.019,0.918l-0.331,1.812l-12.215-2.234l0.331-1.812l5.043,0.922l2.687-14.686
		l2.154,0.394L112.418,262.386z"/>
	<path fill="#CCCCCC" d="M97.324,248.729l3.409-4.386l2.11,0.751L91.83,258.975l-2.438-0.868l0.231-17.717l2.18,0.775l-0.081,5.57
		L97.324,248.729z M91.552,248.472l-0.046,5.105c-0.016,1.156-0.114,2.178-0.206,3.175l0.047,0.017
		c0.559-0.83,1.145-1.731,1.814-2.575l3.173-4.021L91.552,248.472z"/>
	<path fill="#CCCCCC" d="M74.241,249.33l4.484,2.429l-0.877,1.619l-10.915-5.912l0.877-1.619l4.507,2.441l7.108-13.125l1.924,1.043
		L74.241,249.33z"/>
	<path fill="#CCCCCC" d="M62.771,244.661l9.117-14.068l1.836,1.189l-9.116,14.068L62.771,244.661z"/>
	<path fill="#CCCCCC" d="M53.384,225.693c-1.386,1.888-3.067,4.176-4.375,5.772l0.039,0.032c1.691-1.123,3.55-2.333,5.67-3.586
		l7.445-4.416l1.269,1.04l-2.942,7.91c-0.898,2.352-1.754,4.416-2.648,6.255l0.038,0.032c1.363-1.585,3.225-3.661,4.948-5.529
		l4.901-5.277l1.597,1.309l-11.528,12.229l-2.135-1.75l2.925-8.086c0.77-2.039,1.513-3.809,2.27-5.439l-0.038-0.031
		c-1.419,1.023-3.047,2.069-4.964,3.232l-7.447,4.381l-2.136-1.75l9.816-13.63l1.654,1.355L53.384,225.693z"/>
	<path fill="#CCCCCC" d="M42.604,215.252l4.414,4.767l4.436-4.108l-4.937-5.332l1.333-1.234l6.425,6.938l-12.307,11.396
		l-6.171-6.665l1.333-1.234l4.683,5.059l3.89-3.602l-4.413-4.766L42.604,215.252z"/>
</g>
<g>
	<path fill="#E2A037" d="M233,115.519h-6.139c-1.11-4.146-2.36-8.1-3.751-11.837c-1.39-3.738-3.194-7.216-5.417-10.247
		c-2.173-2.929-4.824-5.266-7.956-7.009c-3.134-1.742-6.972-2.614-11.518-2.614c-4.8,0-8.892,1.542-12.275,4.622
		c-3.385,3.082-5.078,6.846-5.078,11.291c0,4.647,1.085,8.499,3.258,11.555c2.172,3.058,5.33,5.569,9.472,7.54
		c3.688,1.77,7.313,3.296,10.873,4.584c3.563,1.288,7.011,2.665,10.343,4.13c3.031,1.314,5.948,2.804,8.752,4.471
		c2.805,1.667,5.24,3.612,7.313,5.835c1.671,1.855,3.017,3.843,4.046,5.958c0.185-2.491,0.281-5.007,0.281-7.546
		c0-7.229-0.767-14.278-2.213-21.077L233,115.519z"/>
	<path fill="#E2A037" d="M200.871,189.363c-4.799,0-9.599-0.746-14.396-2.234c-0.119-0.038-0.232-0.076-0.351-0.113v-9.334
		c1.271,0.908,2.61,1.726,4.025,2.437c3.511,1.77,7.589,2.652,12.236,2.652c3.486,0,6.529-0.454,9.131-1.365
		c2.602-0.91,4.711-2.201,6.327-3.87c1.617-1.67,2.815-3.63,3.6-5.882c0.783-2.25,1.175-4.844,1.175-7.776
		c0-4.3-1.213-8.309-3.638-12.026s-6.037-6.538-10.835-8.46c-3.285-1.308-7.048-2.754-11.29-4.338
		c-4.244-1.584-7.907-3.081-10.987-4.49c-6.063-2.728-10.773-6.301-14.132-10.719c-3.359-4.419-5.039-10.189-5.039-17.31
		c0-4.09,0.833-7.903,2.501-11.439c1.667-3.534,4.042-6.692,7.123-9.47c2.929-2.626,6.39-4.685,10.38-6.175
		c3.99-1.49,8.158-2.239,12.503-2.239c4.95,0,9.383,0.75,13.298,2.266c2.642,1.021,5.115,2.164,7.446,3.412
		c-17.821-28.547-49.515-47.546-85.651-47.546c-39.458,0-73.621,22.65-90.21,55.655c0.148,0.815,0.272,1.463,0.373,1.959
		c1.16,4.445,3.215,11.771,6.169,22.024c2.951,10.254,7.329,25.561,13.133,46.016l26.835-80.029h7.415l27.079,81.733
		c0.032-0.107,0.062-0.116,0.093-0.224l3.484,10.646c-1.579,5.087-3.187,10.117-4.833,15.646h-6.977l-27.145-82.814L61.497,188.77
		h-6.692c-5.001-17.968-10.174-36.151-15.528-55.168c-1.59-5.647-3.02-10.738-4.297-15.294c-1.045,5.823-1.591,11.819-1.591,17.943
		c0,55.729,45.178,100.907,100.908,100.907c39.064,0,72.94-22.2,89.711-54.669C217.551,187.068,209.841,189.363,200.871,189.363z
		 M154.561,91.806c-1.086,1.439-2.034,3.448-2.841,6.024c-3.587,11.669-7.757,25.296-12.503,40.879
		c-1.072,3.518-2.165,7.094-3.276,10.715l-3.746-11.315c0.811-2.855,1.586-5.602,2.319-8.212c2.635-9.387,4.811-17.419,6.534-24.099
		c1.216-4.705,1.969-7.929,2.271-9.673c0.302-1.742,0.444-3.221,0.444-4.434c0-1.716-1.198-3.155-3.545-4.318
		c-2.35-1.162-5.921-1.944-11.45-2.349v-5.44h39.39v5.44c-2.073,0.051-2.876,0.341-4.544,0.871
		c-1.667,0.531-3.357,1.225-4.771,2.084C157.074,89.091,155.646,90.366,154.561,91.806z M170.922,187.019v0.368h-9.675V150.07h9.675
		V187.019z"/>
</g>
</svg>
