<?xml version="1.0" encoding="UTF-8" standalone="no"?>
<svg xmlns="http://www.w3.org/2000/svg" height="25" width="25" version="1.1" viewBox="0 0 149.15041 149.14843">
<path fill="#839098" d="M 5,0 C 2.23,0 0,2.23 0,5 l 0,139.15 c 0,2.77 2.23,5 5,5 l 139.15,0 c 2.77,0 5,-2.23 5,-5 L 149.15,5 c 0,-2.77 -2.23,-5 -5,-5 z m 10.734,10.732 117.68,0 c 2.77,0 5,2.23 5,5 l 0,117.68 c 0,2.77 -2.23,5 -5,5 l -117.68,0 c -2.77,0 -5.002,-2.23 -5.002,-5 l 0,-117.68 c 0,-2.77 2.232,-5 5.002,-5 z m 8.332,8.334 c -2.77,0 -5,2.23 -5,5 l 0,101.02 c 0,2.77 2.23,5 5,5 l 101.02,0 c 2.77,0 5,-2.23 5,-5 l 0,-101.02 c 0,-2.77 -2.23,-5 -5,-5 z"/>
</svg>
