<?xml version="1.0" encoding="utf-8"?>
<!-- Generator: Adobe Illustrator 15.0.0, SVG Export Plug-In . SVG Version: 6.00 Build 0)  -->
<!DOCTYPE svg PUBLIC "-//W3C//DTD SVG 1.1//EN" "http://www.w3.org/Graphics/SVG/1.1/DTD/svg11.dtd">
<svg version="1.1" id="Calque_1" xmlns="http://www.w3.org/2000/svg" xmlns:xlink="http://www.w3.org/1999/xlink" x="0px" y="0px"
	 width="47.297px" height="50.338px" viewBox="0 0 47.297 50.338" enable-background="new 0 0 47.297 50.338" xml:space="preserve">
<g>
	
		<image overflow="visible" opacity="0.75" width="51" height="52" xlink:href="EC7415F1.png"  transform="matrix(1 0 0 1 -1.4458 -1.7837)">
	</image>
	<g>
		<path fill="#286278" d="M43.554,40.216c0,1.657-1.343,3-3,3h-33c-1.657,0-3-1.343-3-3v-34c0-1.657,1.343-3,3-3h33
			c1.657,0,3,1.343,3,3V40.216z"/>
	</g>
</g>
<g>
	<path fill="#FFFFFF" d="M36.554,12.216c0-0.552-0.447-1-1-1h-23c-0.552,0-1,0.448-1,1v23c0,0.553,0.448,1,1,1h23
		c0.553,0,1-0.447,1-1V12.216z M34.554,33.216c0,0.553-0.447,1-1,1h-19c-0.552,0-1-0.447-1-1v-16c0-0.552,0.448-1,1-1h19
		c0.553,0,1,0.448,1,1V33.216z"/>
	<path fill="#FFFFFF" d="M19.554,12.216c0,0.552-0.448,1-1,1l0,0c-0.552,0-1-0.448-1-1v-2c0-0.552,0.448-1,1-1l0,0
		c0.552,0,1,0.448,1,1V12.216z"/>
	<path fill="#FFFFFF" d="M30.554,12.216c0,0.552-0.447,1-1,1l0,0c-0.553,0-1-0.448-1-1v-2c0-0.552,0.447-1,1-1l0,0
		c0.553,0,1,0.448,1,1V12.216z"/>
	<path fill="#286278" d="M17.819,11.536v1c0,0.553,0.447,1,1,1l0,0c0.553,0,1-0.447,1-1v-1H17.819z"/>
	<path fill="#286278" d="M28.82,11.536v1c0,0.553,0.447,1,1,1l0,0c0.553,0,1-0.447,1-1v-1H28.82z"/>
	<rect x="17.669" y="18.536" fill="#FFFFFF" width="1.9" height="1.939"/>
	<rect x="20.52" y="18.536" fill="#FFFFFF" width="1.9" height="1.939"/>
	<rect x="23.369" y="18.536" fill="#FFFFFF" width="1.9" height="1.939"/>
	<rect x="26.22" y="18.536" fill="#FFFFFF" width="1.898" height="1.939"/>
	<rect x="29.07" y="18.536" fill="#FFFFFF" width="1.9" height="1.939"/>
	<rect x="31.919" y="18.536" fill="#FFFFFF" width="1.9" height="1.939"/>
	<rect x="17.669" y="21.536" fill="#FFFFFF" width="1.9" height="1.939"/>
	<rect x="14.819" y="21.536" fill="#FFFFFF" width="1.9" height="1.939"/>
	<rect x="20.52" y="21.536" fill="#FFFFFF" width="1.9" height="1.939"/>
	<rect x="23.369" y="21.536" fill="#FFFFFF" width="1.9" height="1.939"/>
	<rect x="26.22" y="21.536" fill="#FFFFFF" width="1.898" height="1.939"/>
	<rect x="29.07" y="21.536" fill="#FFFFFF" width="1.9" height="1.939"/>
	<rect x="31.919" y="21.536" fill="#FFFFFF" width="1.9" height="1.939"/>
	<rect x="17.669" y="24.537" fill="#FFFFFF" width="1.9" height="1.939"/>
	<rect x="14.819" y="24.537" fill="#FFFFFF" width="1.9" height="1.939"/>
	<rect x="20.52" y="24.537" fill="#FFFFFF" width="1.9" height="1.939"/>
	<rect x="23.369" y="24.537" fill="#FFFFFF" width="1.9" height="1.939"/>
	<rect x="26.22" y="24.537" fill="#FFFFFF" width="1.898" height="1.939"/>
	<rect x="29.07" y="24.537" fill="#FFFFFF" width="1.9" height="1.939"/>
	<rect x="31.919" y="24.537" fill="#FFFFFF" width="1.9" height="1.939"/>
	<rect x="17.669" y="27.537" fill="#FFFFFF" width="1.9" height="1.939"/>
	<rect x="14.819" y="27.537" fill="#FFFFFF" width="1.9" height="1.939"/>
	<rect x="20.52" y="27.537" fill="#FFFFFF" width="1.9" height="1.939"/>
	<rect x="23.369" y="27.537" fill="#FFFFFF" width="1.9" height="1.939"/>
	<rect x="26.22" y="27.537" fill="#FFFFFF" width="1.898" height="1.939"/>
	<rect x="29.07" y="27.537" fill="#FFFFFF" width="1.9" height="1.939"/>
	<rect x="31.919" y="27.537" fill="#FFFFFF" width="1.9" height="1.939"/>
	<rect x="17.669" y="30.537" fill="#FFFFFF" width="1.9" height="1.939"/>
	<rect x="14.819" y="30.537" fill="#FFFFFF" width="1.9" height="1.939"/>
	<rect x="20.52" y="30.537" fill="#FFFFFF" width="1.9" height="1.939"/>
</g>
</svg>
