<svg xmlns="http://www.w3.org/2000/svg" height="25" width="25" version="1.1" viewBox="0 0 149.15041 149.14843">
<rect id="backgroundrect" width="100%" height="100%" x="0" y="0" fill="none" stroke="none"/>
<g class="currentLayer"><title>Layer 1</title><path fill="#839098" d="M 5,0 C 2.23,0 0,2.23 0,5 l 0,139.15 c 0,2.77 2.23,5 5,5 l 139.15,0 c 2.77,0 5,-2.23 5,-5 L 149.15,5 c 0,-2.77 -2.23,-5 -5,-5 z m 10.734,10.732 117.68,0 c 2.77,0 5,2.23 5,5 l 0,117.68 c 0,2.77 -2.23,5 -5,5 l -117.68,0 c -2.77,0 -5.002,-2.23 -5.002,-5 l 0,-117.68 c 0,-2.77 2.232,-5 5.002,-5 z m 8.332,8.334 c -2.77,0 -5,2.23 -5,5 l 0,101.02 c 0,2.77 2.23,5 5,5 l 101.02,0 c 2.77,0 5,-2.23 5,-5 l 0,-101.02 c 0,-2.77 -2.23,-5 -5,-5 z" id="svg_1" class=""/><path fill="#4a90d6" fill-opacity="1" stroke="#222222" stroke-opacity="1" stroke-width="2" stroke-dasharray="none" stroke-linejoin="round" stroke-linecap="butt" stroke-dashoffset="" fill-rule="nonzero" opacity="1" marker-start="" marker-mid="" marker-end="" d="M25.279430025110397,74.57421756518715L123.87098230052618,74.57421756518715" id="svg_2"/><path fill="#4a90d6" fill-opacity="1" stroke="#222222" stroke-opacity="1" stroke-width="12" stroke-dasharray="none" stroke-linejoin="round" stroke-linecap="butt" stroke-dashoffset="" fill-rule="nonzero" opacity="1" marker-start="" marker-mid="" marker-end="" d="M28.09633147049919,71.75731611979836 L123.8709822523317,71.75731611979836 " id="svg_4" class=""/><rect fill="#839098" stroke-dashoffset="" fill-rule="nonzero" id="svg_3" x="22" y="66" width="6" height="14" style="color: rgb(0, 0, 0);"/></g></svg>
