<?xml version="1.0" encoding="utf-8"?>
<!-- Generator: Adobe Illustrator 15.0.0, SVG Export Plug-In . SVG Version: 6.00 Build 0)  -->
<!DOCTYPE svg PUBLIC "-//W3C//DTD SVG 1.1//EN" "http://www.w3.org/Graphics/SVG/1.1/DTD/svg11.dtd">
<svg version="1.1" id="Calque_1" xmlns="http://www.w3.org/2000/svg" xmlns:xlink="http://www.w3.org/1999/xlink" x="0px" y="0px"
	 width="60px" height="60px" viewBox="0 0 60 60" enable-background="new 0 0 60 60" xml:space="preserve">
<circle fill="#286279" cx="30.11" cy="30.11" r="25.11"/>
<g>
	<path fill="#FFFFFF" d="M28.032,25.216h-8.397c0.161-2.866,1.071-5.196,2.733-6.991c1.981-2.169,4.794-3.254,8.437-3.254
		c3.561,0,6.307,0.938,8.236,2.813c1.58,1.5,2.396,3.321,2.451,5.463c0.053,2.143-0.509,3.776-1.687,4.902
		c-0.349,0.348-1.607,1.112-3.777,2.29c-0.911,0.482-1.513,0.972-1.808,1.466c-0.295,0.496-0.441,1.212-0.441,2.15h-7.433
		c-0.188-3.563,0.75-5.919,2.812-7.071c0.776-0.375,1.553-0.764,2.331-1.165c0.938-0.562,1.406-1.219,1.406-1.969
		c0-1.366-0.776-2.048-2.33-2.048c-0.912,0-1.581,0.328-2.009,0.984C28.125,23.441,27.951,24.251,28.032,25.216z M25.862,44.339
		v-7.955h8.356v7.955H25.862z"/>
</g>
<path fill="#286279" d="M30,60C13.458,60,0,46.542,0,30S13.458,0,30,0s30,13.458,30,30S46.542,60,30,60z M30,1
	C14.009,1,1,14.009,1,30s13.009,29,29,29s29-13.009,29-29S45.991,1,30,1z"/>
</svg>
